<svg width="34" height="36" viewBox="0 0 34 36" fill="none" xmlns="http://www.w3.org/2000/svg">
<g clip-path="url(#clip0)">
<path d="M14.875 31.5H3.54167C1.5895 31.5 0 29.817 0 27.75V8.25C0 6.183 1.5895 4.5 3.54167 4.5H6.375C6.766 4.5 7.08333 4.836 7.08333 5.25C7.08333 5.664 6.766 6 6.375 6H3.54167C2.37008 6 1.41667 7.0095 1.41667 8.25V27.75C1.41667 28.9905 2.37008 30 3.54167 30H14.875C15.266 30 15.5833 30.336 15.5833 30.75C15.5833 31.164 15.266 31.5 14.875 31.5Z" fill="white"/>
<path d="M23.375 13.5C22.984 13.5 22.6667 13.164 22.6667 12.75V8.25C22.6667 7.0095 21.7132 6 20.5417 6H17.7083C17.3173 6 17 5.664 17 5.25C17 4.836 17.3173 4.5 17.7083 4.5H20.5417C22.4938 4.5 24.0833 6.183 24.0833 8.25V12.75C24.0833 13.164 23.766 13.5 23.375 13.5Z" fill="white"/>
<path d="M16.2917 9H7.79175C6.62016 9 5.66675 7.9905 5.66675 6.75V3.75C5.66675 3.336 5.98408 3 6.37508 3H8.57091C8.901 1.29 10.3304 0 12.0417 0C13.7531 0 15.1825 1.29 15.5126 3H17.7084C18.0994 3 18.4167 3.336 18.4167 3.75V6.75C18.4167 7.9905 17.4633 9 16.2917 9ZM7.08341 4.5V6.75C7.08341 7.164 7.40075 7.5 7.79175 7.5H16.2917C16.6827 7.5 17.0001 7.164 17.0001 6.75V4.5H14.8751C14.4841 4.5 14.1667 4.164 14.1667 3.75C14.1667 2.5095 13.2133 1.5 12.0417 1.5C10.8702 1.5 9.91675 2.5095 9.91675 3.75C9.91675 4.164 9.59941 4.5 9.20841 4.5H7.08341Z" fill="white"/>
<path d="M31.875 36H19.125C17.9534 36 17 34.9905 17 33.75V17.25C17 16.0095 17.9534 15 19.125 15H27.8673C28.8122 15 29.7018 15.39 30.3719 16.098L32.963 18.8415C33.6317 19.5495 34 20.4915 34 21.4935V33.75C34 34.9905 33.0466 36 31.875 36ZM19.125 16.5C18.734 16.5 18.4167 16.836 18.4167 17.25V33.75C18.4167 34.164 18.734 34.5 19.125 34.5H31.875C32.266 34.5 32.5833 34.164 32.5833 33.75V21.4935C32.5833 20.901 32.3567 20.322 31.9614 19.902L29.3703 17.1585C28.9751 16.74 28.4268 16.5 27.8673 16.5H19.125Z" fill="white"/>
<path d="M29.0417 25.5H21.9583C21.5673 25.5 21.25 25.164 21.25 24.75C21.25 24.336 21.5673 24 21.9583 24H29.0417C29.4327 24 29.75 24.336 29.75 24.75C29.75 25.164 29.4327 25.5 29.0417 25.5Z" fill="white"/>
<path d="M29.0417 30H21.9583C21.5673 30 21.25 29.664 21.25 29.25C21.25 28.836 21.5673 28.5 21.9583 28.5H29.0417C29.4327 28.5 29.75 28.836 29.75 29.25C29.75 29.664 29.4327 30 29.0417 30Z" fill="white"/>
</g>
<defs>
<clipPath id="clip0">
<rect width="34" height="36" rx="5" fill="white"/>
</clipPath>
</defs>
</svg>
