<svg width="22" height="23" viewBox="0 0 22 23" fill="none" xmlns="http://www.w3.org/2000/svg">
<path d="M17.4039 9.10616V6.6948C17.4039 3.0033 14.5312 0 11.0001 0C7.46909 0 4.59638 3.0033 4.59638 6.69484V9.1062H2.24805V23H19.7522V9.10616H17.4039ZM11.0001 1.34766C13.8204 1.34766 16.1148 3.74639 16.1148 6.69484V9.1062H14.8258V6.69489C14.8258 4.48949 13.1096 2.69531 11.0001 2.69531C8.89067 2.69531 7.1745 4.48949 7.1745 6.69484V9.10616H5.88544V6.69484C5.88544 3.74639 8.17988 1.34766 11.0001 1.34766ZM13.5368 6.69484V9.10616H8.46356V6.69484C8.46356 5.23259 9.6015 4.04297 11.0001 4.04297C12.3989 4.04297 13.5368 5.23259 13.5368 6.69484ZM3.53711 21.6523V10.4538H18.4631V21.6523H3.53711Z" fill="#CC5DA8"/>
<path d="M13.1683 14.8956C13.1683 13.6456 12.1956 12.6287 10.9999 12.6287C9.80427 12.6287 8.83154 13.6456 8.83154 14.8956C8.83154 15.5046 9.06203 16.0757 9.46409 16.496L8.85711 19.4776H13.1427L12.5358 16.496C12.9378 16.0757 13.1683 15.5046 13.1683 14.8956ZM11.4747 15.6689L11.1008 15.9208L11.5505 18.1299H10.4494L10.8991 15.9208L10.5252 15.6689C10.2719 15.4984 10.1206 15.2092 10.1206 14.8956C10.1206 14.3887 10.5151 13.9763 10.9999 13.9763C11.4848 13.9763 11.8792 14.3887 11.8792 14.8956C11.8792 15.2092 11.728 15.4984 11.4747 15.6689Z" fill="#CC5DA8"/>
</svg>
