<svg width="39" height="32" viewBox="0 0 39 32" fill="none" xmlns="http://www.w3.org/2000/svg">
<path d="M38.3766 14.5653L24.2924 0.721458C23.8903 0.326284 23.3545 0.109375 22.7831 0.109375C22.2111 0.109375 21.6756 0.326596 21.2735 0.721458L19.9948 1.97866C19.5931 2.37321 19.3717 2.90021 19.3717 3.46212C19.3717 4.02371 19.5931 4.56848 19.9948 4.96303L28.2114 13.0569H2.10693C0.929968 13.0569 0 13.9626 0 15.1197V16.8971C0 18.0542 0.929968 19.0512 2.10693 19.0512H28.3046L19.9951 27.1903C19.5934 27.5855 19.3721 28.0981 19.3721 28.66C19.3721 29.2213 19.5934 29.7415 19.9951 30.1363L21.2738 31.3895C21.6759 31.7846 22.2114 32 22.7834 32C23.3548 32 23.8906 31.7818 24.2927 31.3867L38.377 17.5431C38.7799 17.1467 39.0016 16.6175 39 16.055C39.0013 15.4906 38.7799 14.9611 38.3766 14.5653Z" fill="white"/>
</svg>
