<svg width="41" height="42" viewBox="0 0 41 42" fill="none" xmlns="http://www.w3.org/2000/svg">
<g clip-path="url(#clip0)">
<path d="M40.1689 10.0274C39.3106 9.43983 38.1495 9.67628 37.5759 10.5557L34.1407 15.8221C33.321 13.0345 31.8375 10.4802 29.7717 8.36394C22.9701 1.39635 11.9029 1.39635 5.10118 8.36394C-1.70039 15.3315 -1.70039 26.6685 5.10118 33.6359C8.50203 37.1196 12.9692 38.8616 17.4364 38.8616C21.9036 38.8616 26.3709 37.1196 29.7717 33.6359C30.5018 32.888 30.5018 31.6755 29.7717 30.9276C29.0416 30.1797 27.858 30.1798 27.1279 30.9275C21.784 36.4017 13.0889 36.4017 7.74501 30.9276C2.40127 25.4534 2.40127 16.5463 7.74501 11.0723C13.089 5.59804 21.7841 5.59817 27.1279 11.0721C28.7774 12.7621 29.9539 14.8077 30.591 17.0399L24.8928 13.1398C24.0344 12.5524 22.8734 12.7888 22.2997 13.6682C21.726 14.5476 21.957 15.7369 22.8156 16.3246L31.973 22.5924C32.292 22.8107 32.653 22.9153 33.0099 22.9153C33.6132 22.9153 34.2056 22.6165 34.5661 22.064L40.6848 12.6836C41.2583 11.8043 41.0274 10.6151 40.1689 10.0274Z" fill="white"/>
</g>
<defs>
<clipPath id="clip0">
<rect width="41" height="42" fill="white"/>
</clipPath>
</defs>
</svg>
