<svg width="63" height="65" viewBox="0 0 63 65" fill="none" xmlns="http://www.w3.org/2000/svg">
<path d="M54.7312 57.7129H25.2492C24.3386 57.7129 23.6003 56.9512 23.6003 56.0117V8.70898C23.6003 7.76953 24.3386 7.00781 25.2492 7.00781H54.7312C55.6418 7.00781 56.38 7.76953 56.38 8.70898V56.0371C56.38 56.9766 55.6418 57.7129 54.7312 57.7129Z" fill="#D5CEC2"/>
<path d="M26.8981 10.4102H53.1071V22.2422H26.8981V10.4102Z" fill="#EBF7FE"/>
<path d="M41.6144 10.4102H26.8734V22.2422H35.8804C38.8582 19.043 40.9254 14.9551 41.6144 10.4102Z" fill="white"/>
<path d="M26.0613 25.6191H30.9832V28.9961H26.0613V25.6191Z" fill="#8892A0"/>
<path d="M34.2562 25.6191H39.1781V28.9961H34.2562V25.6191Z" fill="#758190"/>
<path d="M42.4512 25.6191H47.373V28.9961H42.4512V25.6191Z" fill="#8892A0"/>
<path d="M26.8981 32.373H30.1711V35.75H26.8981V32.373Z" fill="#758190"/>
<path d="M32.6074 32.373H35.8805V35.75H32.6074V32.373Z" fill="#758190"/>
<path d="M38.3414 32.373H41.6145V35.75H38.3414V32.373Z" fill="#758190"/>
<path d="M44.0754 32.373H47.3485V35.75H44.0754V32.373Z" fill="#758190"/>
<path d="M26.8981 38.2891H30.1711V41.666H26.8981V38.2891Z" fill="#758190"/>
<path d="M32.6074 38.2891H35.8805V41.666H32.6074V38.2891Z" fill="#758190"/>
<path d="M38.3414 38.2891H41.6145V41.666H38.3414V38.2891Z" fill="#758190"/>
<path d="M44.0754 38.2891H47.3485V41.666H44.0754V38.2891Z" fill="#758190"/>
<path d="M26.8981 44.2051H30.1711V47.582H26.8981V44.2051Z" fill="#758190"/>
<path d="M32.6074 44.2051H35.8805V47.582H32.6074V44.2051Z" fill="#758190"/>
<path d="M38.3414 44.2051H41.6145V47.582H38.3414V44.2051Z" fill="#758190"/>
<path d="M44.0754 44.2051H47.3485V47.582H44.0754V44.2051Z" fill="#758190"/>
<path d="M50.6461 32.373H53.9192V39.127H50.6461V32.373Z" fill="#C66B60"/>
<path d="M50.6461 49.2832H53.9192V54.3613H50.6461V49.2832Z" fill="#C16B3F"/>
<path d="M50.6461 42.5039H53.9192V45.8809H50.6461V42.5039Z" fill="#C66B60"/>
<path d="M50.6461 25.6191H53.9192V28.9961H50.6461V25.6191Z" fill="#758190"/>
<path d="M37.5293 50.959H47.3484V54.3359H37.5293V50.959Z" fill="#E47C6E"/>
<path d="M26.0613 53.498H27.7101V55.1992H26.0613V53.498Z" fill="#758190"/>
<path d="M29.3344 53.498H30.9832V55.1992H29.3344V53.498Z" fill="#758190"/>
<path d="M32.6074 53.498H34.2562V55.1992H32.6074V53.498Z" fill="#758190"/>
<path d="M26.0613 50.1211H27.7101V51.8223H26.0613V50.1211Z" fill="#758190"/>
<path d="M29.3344 50.1211H30.9832V51.8223H29.3344V50.1211Z" fill="#758190"/>
<path d="M32.6074 50.1211H34.2562V51.8223H32.6074V50.1211Z" fill="#758190"/>
<path d="M45.7242 19.7031H44.0753C43.1648 19.7031 42.4265 18.9414 42.4265 18.002V14.625C42.4265 13.6855 43.1648 12.9238 44.0753 12.9238H45.7242C46.6347 12.9238 47.373 13.6855 47.373 14.625V18.002C47.373 18.9414 46.6347 19.7031 45.7242 19.7031ZM44.0753 14.625V18.002H45.7242V14.625H44.0753Z" fill="#4D5D7A"/>
<path d="M48.9973 18.002H50.6461V19.7031H48.9973V18.002Z" fill="#4D5D7A"/>
<path d="M11.345 38.3906H21.9024V43.1641H11.345V38.3906Z" fill="#C66B60"/>
<path d="M10.0898 30.4688H14.4211V35.2422H10.0898V30.4688Z" fill="#C66B60"/>
<path d="M18.9492 27.4219H21.4102V32.2461H18.9492V27.4219Z" fill="#C66B60"/>
<path d="M6.89062 22.5977H14.4703V27.3711H6.89062V22.5977Z" fill="#C66B60"/>
</svg>
