<svg width="23" height="23" viewBox="0 0 23 23" fill="none" xmlns="http://www.w3.org/2000/svg">
<path d="M8.84813 9.10616V6.69484C8.84813 5.23259 10.0378 4.04297 11.5 4.04297C12.9623 4.04297 14.1519 5.23259 14.1519 6.69484V7.36867H18.1948V6.69484C18.1949 3.0033 15.1916 0 11.5 0C7.80846 0 4.80517 3.0033 4.80517 6.69484V9.1062H2.3501V23H20.6499V9.10616H8.84813ZM11.5 1.34766C14.2203 1.34766 16.4726 3.38949 16.805 6.02101H15.4428C15.1215 4.13546 13.4758 2.69531 11.5 2.69531C9.29466 2.69531 7.50048 4.48949 7.50048 6.69484V9.10616H6.15282V6.69484C6.15282 3.74639 8.55156 1.34766 11.5 1.34766ZM3.69775 21.6523V10.4538H19.3022V21.6523H3.69775Z" fill="#9086FE"/>
<path d="M13.7669 14.8956C13.7669 13.6456 12.75 12.6287 11.5 12.6287C10.25 12.6287 9.23303 13.6456 9.23303 14.8956C9.23303 15.5046 9.47399 16.0757 9.89433 16.496L9.25976 19.4776H13.7402L13.1056 16.496C13.5259 16.0757 13.7669 15.5046 13.7669 14.8956ZM11.9964 15.6689L11.6054 15.9208L12.0756 18.1299H10.9244L11.3946 15.9208L11.0036 15.6689C10.7388 15.4984 10.5807 15.2092 10.5807 14.8956C10.5807 14.3887 10.9931 13.9763 11.5 13.9763C12.0069 13.9763 12.4193 14.3887 12.4193 14.8956C12.4193 15.2092 12.2612 15.4984 11.9964 15.6689Z" fill="#9086FE"/>
</svg>
